<?xml version="1.0" encoding="UTF-8" standalone="no"?>
<!-- Created with Inkscape (http://www.inkscape.org/) -->

<svg
   xmlns:dc="http://purl.org/dc/elements/1.1/"
   xmlns:cc="http://creativecommons.org/ns#"
   xmlns:rdf="http://www.w3.org/1999/02/22-rdf-syntax-ns#"
   xmlns:svg="http://www.w3.org/2000/svg"
   xmlns="http://www.w3.org/2000/svg"
   xmlns:sodipodi="http://sodipodi.sourceforge.net/DTD/sodipodi-0.dtd"
   xmlns:inkscape="http://www.inkscape.org/namespaces/inkscape"
   id="svg3055"
   version="1.1"
   inkscape:version="0.48.4 r9939"
   width="16"
   height="16"
   sodipodi:docname="test-7.svg">
  <metadata
     id="metadata3061">
    <rdf:RDF>
      <cc:Work
         rdf:about="">
        <dc:format>image/svg+xml</dc:format>
        <dc:type
           rdf:resource="http://purl.org/dc/dcmitype/StillImage" />
        <dc:title />
      </cc:Work>
    </rdf:RDF>
  </metadata>
  <defs
     id="defs3059" />
  <sodipodi:namedview
     pagecolor="#000000"
     bordercolor="#000000"
     borderopacity="1"
     objecttolerance="10000"
     gridtolerance="10000"
     guidetolerance="10000"
     inkscape:pageopacity="0.69019608"
     inkscape:pageshadow="2"
     inkscape:window-width="1600"
     inkscape:window-height="850"
     id="namedview3057"
     showgrid="true"
     borderlayer="true"
     inkscape:snap-bbox="true"
     inkscape:zoom="29.086403"
     inkscape:cx="13.769071"
     inkscape:cy="8.636515"
     inkscape:window-x="0"
     inkscape:window-y="23"
     inkscape:window-maximized="1"
     inkscape:current-layer="svg3055"
     inkscape:snap-nodes="false"
     inkscape:snap-global="true"
     guidecolor="#ffffff"
     guideopacity="1">
    <inkscape:grid
       type="xygrid"
       id="grid3129"
       empspacing="5"
       visible="true"
       enabled="true"
       snapvisiblegridlinesonly="true"
       empcolor="#ffffff"
       empopacity="0.14117647"
       color="#ffffff"
       opacity="0.14117647" />
  </sodipodi:namedview>
  <path
     style="fill:#000000"
     d=""
     id="path3099"
     inkscape:connector-curvature="0" />
  <path
     style="fill:#000000"
     d=""
     id="path3097"
     inkscape:connector-curvature="0" />
  <path
     style="fill:#000000"
     d=""
     id="path3095"
     inkscape:connector-curvature="0" />
  <path
     style="font-size:medium;font-style:normal;font-variant:normal;font-weight:normal;font-stretch:normal;text-indent:0;text-align:start;text-decoration:none;line-height:normal;letter-spacing:normal;word-spacing:normal;text-transform:none;direction:ltr;block-progression:tb;writing-mode:lr-tb;text-anchor:start;baseline-shift:baseline;color:#000000;fill:#ffffff;fill-opacity:1;stroke:none;stroke-width:2;marker:none;visibility:visible;display:inline;overflow:visible;enable-background:accumulate;font-family:Sans;-inkscape-font-specification:Sans"
     d="m 11.066786,1.022809 a 0.8763122,0.92229887 0 0 0 -0.602404,1.296853 c 0.120586,0.4686063 0.295226,0.9243119 0.492877,1.3833101 0.74403,1.7278457 1.86171,3.5206708 2.19056,4.9568607 0.164426,0.7180949 0.142057,1.2964042 -0.109527,1.8444132 -0.251583,0.548009 -0.776146,1.120788 -1.889358,1.700319 -0.01386,0.0072 -0.03133,0.017 -0.05476,0.02882 l -6.1883352,0 c -0.023443,-0.01182 -0.040897,-0.0216 -0.054768,-0.02882 C 3.7378553,11.625034 3.2132921,11.052255 2.9617087,10.504246 2.7101245,9.956237 2.6877545,9.3779278 2.8521806,8.6598328 3.1810312,7.2236429 4.2987117,5.4308179 5.0427421,3.7029721 5.2403912,3.2439749 5.4150315,2.7882693 5.5356184,2.319662 A 0.8763122,0.92229887 0 0 0 4.5772478,1.1669038 0.8763122,0.92229887 0 0 0 3.8653153,1.8585586 C 3.7808998,2.186615 3.6285604,2.5496582 3.454585,2.9536792 2.8177827,4.4325119 1.6060842,6.2553249 1.1544955,8.2275485 0.92870038,9.2136602 0.91016298,10.272989 1.3735517,11.282358 c 0.4633878,1.009369 1.3671381,1.894196 2.7108197,2.593707 0.099253,0.05167 0.2464382,0.115278 0.2464382,0.115278 a 0.8763122,0.92229887 0 0 0 0.1642921,0.05763 l 0,0.518742 C 4.4951017,14.813625 4.6721834,15 4.905832,15 l 0.9309886,0 c 0.2336486,0 0.4107303,-0.186375 0.4107303,-0.432285 l 0,-0.489922 0.8762245,0 0,0.489922 C 7.1237754,14.813625 7.3008571,15 7.5345058,15 l 0.9309885,0 c 0.2336486,0 0.4107302,-0.186375 0.4107302,-0.432285 l 0,-0.489922 0.8762246,0 0,0.489922 C 9.7524491,14.813625 9.9295306,15 10.163179,15 l 0.930989,0 c 0.23365,0 0.41073,-0.186375 0.41073,-0.432285 l 0,-0.518741 a 0.8763122,0.92229887 0 0 0 0.164292,-0.05763 c 0,0 0.14714,-0.06358 0.246439,-0.115279 1.343681,-0.699511 2.247431,-1.584338 2.71082,-2.593707 0.463388,-1.009369 0.44485,-2.0686978 0.219055,-3.0548095 C 14.393916,6.2553248 13.182217,4.4325121 12.545415,2.9536792 12.371439,2.5496595 12.219104,2.1866161 12.134685,1.8585586 A 0.8763122,0.92229887 0 0 0 11.066786,1.022809 z M 7.9178539,1.138085 A 0.8763122,0.92229887 0 0 0 7.808326,1.166904 0.8763122,0.92229887 0 0 0 7.1237756,2.0891107 l 0,5.5332399 a 0.8763122,0.92229887 0 1 0 1.7524491,0 l 0,-5.5332399 A 0.8763122,0.92229887 0 0 0 7.9178539,1.1380848 z M 8,9.4667635 c -0.4839255,0 -0.8762246,0.4128858 -0.8762246,0.9222065 0,0.50932 0.3922991,0.922207 0.8762246,0.922207 0.4839256,0 0.8762245,-0.412887 0.8762245,-0.922207 C 8.8762245,9.8796493 8.4839256,9.4667635 8,9.4667635 z"
     id="path3991-7"
     inkscape:connector-curvature="0" />
</svg>
